<svg width="64" height="64" viewBox="0 0 64 64" xmlns="http://www.w3.org/2000/svg">
  <!-- Background Circle -->
  <circle cx="32" cy="32" r="30" fill="#6366f1" stroke="#4f46e5" stroke-width="2"/>
  
  <!-- AppSentry Logo -->
  <!-- A letter -->
  <path d="M18 20 L26 20 L30 40 L22 40 L21 36 L23 36 L19 36 L18 40 L10 40 Z M20 28 L22 32 L20 32 Z" fill="white"/>
  
  <!-- S letter -->
  <path d="M34 20 C38 20 42 22 42 26 C42 28 40 30 38 30 C40 30 42 32 42 36 C42 40 38 42 34 42 L32 42 C28 42 24 40 24 36 L28 36 C28 37 29 38 32 38 L34 38 C35 38 36 37 36 36 C36 35 35 34 34 34 L32 34 L32 30 L34 30 C35 30 36 29 36 28 C36 27 35 26 34 26 L32 26 C29 26 28 27 28 28 L24 28 C24 24 28 22 32 22 L34 20 Z" fill="white"/>
  
  <!-- Monitoring dots -->
  <circle cx="48" cy="16" r="2" fill="#10b981"/>
  <circle cx="52" cy="20" r="1.5" fill="#f59e0b"/>
  <circle cx="16" cy="48" r="1.5" fill="#ef4444"/>
  <circle cx="48" cy="48" r="2" fill="#8b5cf6"/>
</svg>