<svg width="32" height="32" viewBox="0 0 32 32" xmlns="http://www.w3.org/2000/svg">
  <!-- Background -->
  <rect width="32" height="32" rx="6" fill="#6366f1"/>
  
  <!-- AppSentry AS -->
  <!-- A -->
  <path d="M6 8 h4 l3 16 h-3 l-0.5-3 h-3 l-0.5 3 h-3 z m1.5 8 l1 5 h2 l1-5" fill="white" fill-rule="evenodd"/>
  
  <!-- S -->
  <path d="M16 8 h4 c2 0 4 1 4 3 s-1 2-2 2 c1 0 2 1 2 3 s-2 3-4 3 h-4 c-2 0-4-1-4-3 h2 c0 0.5 0.5 1 2 1 h2 c0.5 0 1-0.5 1-1 s-0.5-1-1-1 h-2 v-2 h2 c0.5 0 1-0.5 1-1 s-0.5-1-1-1 h-2 c-1.5 0-2 0.5-2 1 h-2 c0-2 2-3 4-3" fill="white"/>
  
  <!-- Monitoring indicator -->
  <circle cx="26" cy="6" r="2" fill="#10b981"/>
</svg>